# xmcd CD database file
#
# Track frame offsets:
#	183
#	56233
#	95995
#	136058
#	170070
#
# Disc length: 3390 seconds
#
# Revision: 0
# Processed by: cddbd v1.5PL3 Copyright (c) Steve Scherf et al.
# Submitted via: CDex 1.50
#
DISCID=480d3c05
DTITLE=Michel Legrand - Live at Fat Tuesday's
DYEAR=1985
DGENRE=Jazz
TTITLE0=Watch what happens
TTITLE1=How do you keep the music playing
TTITLE2=The windmills of your mind
TTITLE3=Once upon a summertime
TTITLE4=Blues for Ray
EXTD=YEAR: 1985
EXTT0=
EXTT1=
EXTT2=
EXTT3=
EXTT4=
PLAYORDER=
